<svg width="4" height="12" viewBox="0 0 4 12" fill="none" xmlns="http://www.w3.org/2000/svg">
<path d="M0.112295 6.30201L3.34209 9.876C3.49151 10.0413 3.73781 10.0413 3.88771 9.876C3.95964 9.79569 4 9.68719 4 9.57412C4 9.46105 3.95964 9.35255 3.88771 9.27224L0.93071 6.00013L3.88771 2.72802C3.95964 2.64771 4 2.53921 4 2.42614C4 2.31307 3.95964 2.20457 3.88771 2.12426C3.81513 2.04466 3.71708 2 3.6149 2C3.51272 2 3.41467 2.04466 3.34209 2.12426L0.112295 5.69825C0.0403596 5.77856 0 5.88706 0 6.00013C0 6.1132 0.0403596 6.2217 0.112295 6.30201Z" fill="black"/>
</svg>
