<svg width="16" height="16" viewBox="0 0 16 16" fill="none" xmlns="http://www.w3.org/2000/svg">
<path d="M4.66683 2C2.8735 2 1.3335 3.36133 1.3335 5.14267V8.85733C1.3335 10.6387 2.8735 12 4.66683 12C4.75439 12 4.84109 11.9828 4.92198 11.9493C5.00288 11.9158 5.07638 11.8667 5.1383 11.8048C5.20022 11.7429 5.24933 11.6694 5.28284 11.5885C5.31635 11.5076 5.3336 11.4209 5.3336 11.3333C5.3336 11.2458 5.31635 11.1591 5.28284 11.0782C5.24933 10.9973 5.20022 10.9238 5.1383 10.8619C5.07638 10.8 5.00288 10.7509 4.92198 10.7174C4.84109 10.6839 4.75439 10.6667 4.66683 10.6667C3.51483 10.6667 2.66683 9.81067 2.66683 8.85733V5.14267C2.66683 4.18933 3.51483 3.33333 4.66683 3.33333H11.3335C12.4855 3.33333 13.3335 4.18933 13.3335 5.14267V8.85733C13.3335 9.81067 12.4855 10.6667 11.3335 10.6667C11.1567 10.6667 10.9871 10.7369 10.8621 10.8619C10.7371 10.987 10.6668 11.1565 10.6668 11.3333V12.8367L8.44616 10.838C8.32377 10.7277 8.16489 10.6667 8.00016 10.6667H7.3335C7.24594 10.6667 7.15924 10.6839 7.07834 10.7174C6.99745 10.7509 6.92394 10.8 6.86203 10.8619C6.80011 10.9238 6.75099 10.9973 6.71748 11.0782C6.68397 11.1591 6.66673 11.2458 6.66673 11.3333C6.66673 11.4209 6.68397 11.5076 6.71748 11.5885C6.75099 11.6694 6.80011 11.7429 6.86203 11.8048C6.92394 11.8667 6.99745 11.9158 7.07834 11.9493C7.15924 11.9828 7.24594 12 7.3335 12H7.74416L9.77483 13.8273C10.6335 14.6 12.0002 13.9907 12.0002 12.8367V11.9367C13.4922 11.6487 14.6668 10.4127 14.6668 8.85667V5.14333C14.6668 3.36067 13.1268 2 11.3335 2H4.66683ZM4.00016 5.33333C4.00016 5.15652 4.0704 4.98695 4.19542 4.86193C4.32045 4.7369 4.49002 4.66667 4.66683 4.66667H11.3335C11.4211 4.66665 11.5078 4.68389 11.5886 4.71738C11.6695 4.75088 11.7431 4.79999 11.805 4.86189C11.8669 4.9238 11.916 4.9973 11.9495 5.07819C11.983 5.15908 12.0003 5.24578 12.0003 5.33333C12.0003 5.42089 11.983 5.50759 11.9495 5.58848C11.916 5.66937 11.8669 5.74287 11.805 5.80477C11.7431 5.86668 11.6695 5.91579 11.5886 5.94928C11.5078 5.98278 11.4211 6.00001 11.3335 6H4.66683C4.57928 6 4.49259 5.98276 4.41171 5.94925C4.33082 5.91575 4.25733 5.86664 4.19542 5.80474C4.13352 5.74283 4.08441 5.66934 4.05091 5.58846C4.01741 5.50757 4.00016 5.42088 4.00016 5.33333ZM4.66683 7.33333C4.49002 7.33333 4.32045 7.40357 4.19542 7.5286C4.0704 7.65362 4.00016 7.82319 4.00016 8C4.00016 8.17681 4.0704 8.34638 4.19542 8.4714C4.32045 8.59643 4.49002 8.66667 4.66683 8.66667H8.66683C8.84364 8.66667 9.01321 8.59643 9.13823 8.4714C9.26326 8.34638 9.3335 8.17681 9.3335 8C9.3335 7.82319 9.26326 7.65362 9.13823 7.5286C9.01321 7.40357 8.84364 7.33333 8.66683 7.33333H4.66683Z" fill="#14101C"/>
</svg>
