<svg width="16" height="16" viewBox="0 0 16 16" fill="none" xmlns="http://www.w3.org/2000/svg">
<path d="M11.3778 1.77777C9.33336 1.77777 8.08892 3.37777 8.08892 3.37777C8.08892 3.37777 7.02225 1.77777 4.80003 1.77777C2.57781 1.77777 0.888916 3.02222 0.888916 6.04444C0.888916 10.3111 8.08892 14.9333 8.08892 14.9333C8.08892 14.9333 15.1111 10.0444 15.1111 6.13333C15.1111 2.93333 13.0667 1.77777 11.3778 1.77777ZM8.08892 13.8667C8.08892 13.8667 1.7778 9.5111 1.7778 6.04444C1.7778 3.82222 3.28892 2.57777 4.97781 2.57777C6.66669 2.57777 8.08892 4.44444 8.08892 4.44444C8.08892 4.44444 9.7778 2.57777 11.2889 2.57777C12.8 2.57777 14.3111 3.73333 14.3111 6.13333C14.2222 9.5111 8.08892 13.8667 8.08892 13.8667Z" fill="#333333"/>
</svg>
