<svg width="22" height="22" viewBox="0 0 22 22" fill="none" xmlns="http://www.w3.org/2000/svg">
<path d="M11 14.3C7.05095 14.3 3.84995 11.099 3.84995 7.15C3.84995 3.201 7.05095 0 11 0C14.949 0 18.15 3.201 18.15 7.15C18.15 11.099 14.949 14.3 11 14.3ZM2.19995 18.7C2.19995 17.8248 2.54763 16.9854 3.1665 16.3665C3.78537 15.7477 4.62474 15.4 5.49995 15.4H16.5C17.3752 15.4 18.2145 15.7477 18.8334 16.3665C19.4523 16.9854 19.7999 17.8248 19.7999 18.7C19.7999 19.5752 19.4523 20.4146 18.8334 21.0335C18.2145 21.6523 17.3752 22 16.5 22H5.49995C3.67725 22 2.19995 20.5189 2.19995 18.7Z" fill="white" fill-opacity="0.95"/>
</svg>
