<svg width="22" height="22" viewBox="0 0 22 22" fill="none" xmlns="http://www.w3.org/2000/svg">
<path d="M8.04375 2.58966L2.86458 6.47404C2.29535 6.90096 1.83334 7.45456 1.51513 8.09098C1.19692 8.7274 1.03125 9.42917 1.03125 10.1407V16.3855C1.03125 18.9169 3.08321 20.9688 5.61458 20.9688H16.3854C18.9168 20.9688 20.9688 18.9169 20.9688 16.3855V10.1407C20.9688 9.42917 20.8031 8.7274 20.4849 8.09098C20.1667 7.45456 19.7047 6.90096 19.1354 6.47404L13.9562 2.58966C13.1034 1.95002 12.0661 1.60425 11 1.60425C9.93393 1.60425 8.89661 1.95002 8.04375 2.58966Z" fill="black"/>
<path d="M13.2916 15.0105C13.4985 15.0106 13.6974 15.0907 13.8467 15.234C13.996 15.3773 14.0841 15.5728 14.0926 15.7796C14.1011 15.9863 14.0294 16.1884 13.8924 16.3435C13.7554 16.4986 13.5638 16.5948 13.3576 16.6119L13.2916 16.6147H8.70822C8.50127 16.6146 8.30237 16.5345 8.15309 16.3912C8.00381 16.2479 7.9157 16.0524 7.90718 15.8456C7.89865 15.6388 7.97038 15.4368 8.10736 15.2817C8.24435 15.1265 8.43598 15.0304 8.64222 15.0132L8.70822 15.0105H13.2916Z" fill="white"/>
</svg>
