<svg width="12" height="12" viewBox="0 0 12 12" fill="none" xmlns="http://www.w3.org/2000/svg">
<path d="M11.0517 6.3158C11.0517 6.19018 11.1016 6.06969 11.1904 5.98086C11.2793 5.89203 11.3997 5.84212 11.5254 5.84212C11.651 5.84212 11.7715 5.89203 11.8603 5.98086C11.9491 6.06969 11.999 6.19018 11.999 6.3158V10.2632C11.999 11.2224 11.2214 12 10.2623 12H1.73669C0.777563 12 0 11.2224 0 10.2632V2.21056C0 1.25135 0.777563 0.473723 1.73669 0.473723H5.84162C5.96724 0.473723 6.08771 0.523629 6.17653 0.612462C6.26536 0.701294 6.31526 0.821778 6.31526 0.947406C6.31526 1.07303 6.26536 1.19352 6.17653 1.28235C6.08771 1.37118 5.96724 1.42109 5.84162 1.42109H1.73669C1.52733 1.42109 1.32654 1.50426 1.1785 1.65232C1.03046 1.80037 0.947291 2.00118 0.947291 2.21056V10.2632C0.947291 10.4725 1.03046 10.6734 1.1785 10.8214C1.32654 10.9695 1.52733 11.0526 1.73669 11.0526H10.2623C10.4717 11.0526 10.6725 10.9695 10.8205 10.8214C10.9685 10.6734 11.0517 10.4725 11.0517 10.2632V6.3158ZM10.4292 2.21056L9.10015 0.798344C9.01406 0.706845 8.96784 0.584892 8.97166 0.459313C8.97548 0.333734 9.02902 0.214816 9.12051 0.128719C9.21201 0.0426222 9.33395 -0.00360056 9.45952 0.000219246C9.58509 0.00403906 9.704 0.0575886 9.79009 0.149087L11.8703 2.3596C12.1548 2.66181 11.9404 3.15792 11.5254 3.15792H9.14782C7.93892 3.15792 6.94679 4.21201 6.94679 5.52634V8.36843C6.94679 8.49406 6.89689 8.61455 6.80807 8.70338C6.71924 8.79221 6.59877 8.84212 6.47315 8.84212C6.34753 8.84212 6.22706 8.79221 6.13823 8.70338C6.0494 8.61455 5.9995 8.49406 5.9995 8.36843V5.52634C5.9995 3.70124 7.40244 2.21056 9.14782 2.21056H10.4292H10.4292Z" fill="black"/>
</svg>
