<svg width="8" height="9" viewBox="0 0 8 9" fill="none" xmlns="http://www.w3.org/2000/svg">
<g clip-path="url(#clip0_11828_3215)">
<path d="M5.24866 4.49769L7.74131 2.00504C8.08464 1.66171 8.08464 1.10204 7.74131 0.758716C7.39798 0.415389 6.83831 0.415389 6.49498 0.758716L4.00233 3.25137L1.50968 0.758716C1.16635 0.415389 0.606682 0.415389 0.263355 0.758716C-0.0799725 1.10204 -0.0799725 1.66171 0.263355 2.00504L2.75601 4.49769L0.263355 6.99034C-0.0799725 7.33367 -0.0799725 7.89334 0.263355 8.23667C0.606682 8.58 1.16635 8.58 1.50968 8.23667L4.00233 5.74402L6.49498 8.23667C6.83831 8.58 7.39798 8.58 7.74131 8.23667C8.08464 7.89334 8.08464 7.33367 7.74131 6.99034L5.24866 4.49769Z" fill="#F2F4F8"/>
</g>
<defs>
<clipPath id="clip0_11828_3215">
<rect width="8" height="8" fill="white" transform="translate(0 0.5)"/>
</clipPath>
</defs>
</svg>
